<svg width="34" height="27" viewBox="0 0 34 27" fill="none" xmlns="http://www.w3.org/2000/svg">
<path fill-rule="evenodd" clip-rule="evenodd" d="M26.6149 8.04905H33.6667C33.6667 3.14098 30.2741 0.273773 24.526 0.273773H9.47412C3.72597 0.273773 0.333374 3.14098 0.333374 7.98644V18.5663C0.333374 23.4118 3.72597 26.279 9.47412 26.279H24.526C30.2741 26.279 33.6667 23.4118 33.6667 18.5663V18.1156H26.6149C23.3421 18.1156 20.6889 15.8733 20.6889 13.1074C20.6889 10.3414 23.3421 8.09913 26.6149 8.09913V8.04905ZM26.6149 10.2025H32.4223C33.1096 10.2025 33.6668 10.6734 33.6668 11.2542V14.9102C33.6588 15.4883 33.1063 15.9552 32.4223 15.962H26.7482C25.0914 15.9808 23.6426 15.0221 23.2668 13.6582C23.0786 12.8115 23.3428 11.9379 23.9885 11.2713C24.6343 10.6048 25.5957 10.2136 26.6149 10.2025ZM26.8668 14.0463H27.4149C28.1186 14.0463 28.689 13.5642 28.689 12.9696C28.689 12.3749 28.1186 11.8928 27.4149 11.8928H26.8668C26.5302 11.8894 26.2061 12.0001 25.9667 12.2C25.7274 12.4 25.5927 12.6726 25.5927 12.957C25.5926 13.5538 26.1607 14.0395 26.8668 14.0463ZM8.22963 8.04913H17.637C18.3407 8.04913 18.9111 7.56704 18.9111 6.97236C18.9111 6.37768 18.3407 5.89559 17.637 5.89559H8.22963C7.53172 5.89555 6.96367 6.37005 6.95555 6.95984C6.9555 7.55658 7.52358 8.04227 8.22963 8.04913Z" fill="#F66F47"/>
</svg>
